<?xml version="1.0" encoding="UTF-8" standalone="no"?>
<!-- Created with Inkscape (http://www.inkscape.org/) -->

<svg
   xmlns:dc="http://purl.org/dc/elements/1.1/"
   xmlns:cc="http://creativecommons.org/ns#"
   xmlns:rdf="http://www.w3.org/1999/02/22-rdf-syntax-ns#"
   xmlns:svg="http://www.w3.org/2000/svg"
   xmlns="http://www.w3.org/2000/svg"
   xmlns:sodipodi="http://sodipodi.sourceforge.net/DTD/sodipodi-0.dtd"
   xmlns:inkscape="http://www.inkscape.org/namespaces/inkscape"
   width="121.90678mm"
   height="121.90678mm"
   viewBox="0 0 121.90678 121.90678"
   version="1.1"
   id="svg8"
   inkscape:version="0.92.3 (2405546, 2018-03-11)"
   sodipodi:docname="maw_photos_icon_no_m.svg">
  <defs
     id="defs2" />
  <sodipodi:namedview
     id="base"
     pagecolor="#ffffff"
     bordercolor="#666666"
     borderopacity="1.0"
     inkscape:pageopacity="0.0"
     inkscape:pageshadow="2"
     inkscape:zoom="0.70710678"
     inkscape:cx="-344.75685"
     inkscape:cy="306.61043"
     inkscape:document-units="mm"
     inkscape:current-layer="layer2"
     showgrid="false"
     inkscape:window-width="3840"
     inkscape:window-height="2089"
     inkscape:window-x="1920"
     inkscape:window-y="34"
     inkscape:window-maximized="1" />
  <metadata
     id="metadata5">
    <rdf:RDF>
      <cc:Work
         rdf:about="">
        <dc:format>image/svg+xml</dc:format>
        <dc:type
           rdf:resource="http://purl.org/dc/dcmitype/StillImage" />
        <dc:title />
      </cc:Work>
    </rdf:RDF>
  </metadata>
  <g
     inkscape:groupmode="layer"
     id="layer2"
     inkscape:label="bg"
     style="display:inline"
     transform="translate(-36.909374,-63.835941)">
    <circle
       style="fill:#272b30;fill-opacity:1;stroke:none;stroke-width:0.79084337;stroke-opacity:1"
       id="path839"
       cx="97.862762"
       cy="124.78933"
       r="60.953388" />
  </g>
  <g
     inkscape:label="shutter"
     inkscape:groupmode="layer"
     id="layer1"
     transform="translate(-36.909374,-63.835941)">
    <g
       id="g4718"
       transform="matrix(0.26458333,0,0,0.26458333,38.047087,64.881042)">
      <path
         id="path4637"
         d="m 11.2,160 c -6.5,21 -9.9,43.2 -9.9,66.3 0,56.7 21,108.5 55.6,148.1 L 181.1,160 Z"
         class="st1"
         inkscape:connector-curvature="0"
         style="fill:#c03113;fill-opacity:1" />
      <path
         id="path4639"
         d="m 61.1,379.1 c 41.1,44.4 99.9,72.3 165.2,72.3 14.7,0 29,-1.4 42.9,-4.1 l -123,-215 z"
         class="st1"
         inkscape:connector-curvature="0"
         style="fill:#e39f22;fill-opacity:1" />
      <path
         id="path4641"
         d="M 390.2,72.2 C 349.2,28.6 290.9,1.3 226.3,1.3 211.4,1.3 196.8,2.8 182.6,5.6 L 306,219.8 Z"
         class="st1"
         inkscape:connector-curvature="0"
         style="fill:#c03113;fill-opacity:1" />
      <path
         id="path4643"
         d="M 176.5,6.9 C 99.9,24.2 38.1,80.6 13.2,154 h 248 z"
         class="st1"
         inkscape:connector-curvature="0"
         style="fill:#e39f22;fill-opacity:1" />
      <path
         id="path4645"
         d="m 441.4,292.6 c 6.5,-21 9.9,-43.2 9.9,-66.3 0,-57.4 -21.5,-109.7 -56.8,-149.5 l -123,215.8 z"
         class="st1"
         inkscape:connector-curvature="0"
         style="fill:#e39f22;fill-opacity:1" />
      <path
         id="path4647"
         d="m 275.4,445.9 c 77,-17.1 139.1,-73.7 164.1,-147.3 H 191.1 Z"
         class="st1"
         inkscape:connector-curvature="0"
         style="fill:#c03113;fill-opacity:1" />
    </g>
  </g>
  <style
     id="style4633"
     type="text/css">
	.st0{fill:#FFFFFF;}
	.st1{fill:#231F20;}
</style>
</svg>
